# Blender 4.4.0
# www.blender.org
o Case
v -0.561469 0.100000 0.829053
v -0.429053 0.100000 0.961469
v -0.522685 0.100000 0.922685
v -0.429053 0.100000 -0.961469
v -0.561469 0.100000 -0.829053
v -0.522685 0.100000 -0.922685
v 0.429053 0.100000 0.961469
v 0.561469 0.100000 0.829053
v 0.522685 0.100000 0.922685
v 0.561469 0.100000 -0.829053
v 0.429053 0.100000 -0.961469
v 0.522685 0.100000 -0.922685
v -0.426485 -0.100000 0.948557
v -0.436717 -0.048557 1.000000
v -0.548557 -0.100000 0.826485
v -0.600000 -0.048557 0.836717
v -0.512803 -0.100000 0.912803
v -0.552176 -0.048557 0.952176
v -0.548557 -0.100000 -0.826485
v -0.600000 -0.048557 -0.836717
v -0.426485 -0.100000 -0.948557
v -0.436717 -0.048557 -1.000000
v -0.512803 -0.100000 -0.912803
v -0.552176 -0.048557 -0.952176
v 0.548557 -0.100000 0.826485
v 0.600000 -0.048557 0.836717
v 0.426485 -0.100000 0.948557
v 0.436717 -0.048557 1.000000
v 0.512803 -0.100000 0.912803
v 0.552176 -0.048557 0.952176
v 0.426485 -0.100000 -0.948557
v 0.436717 -0.048557 -1.000000
v 0.548557 -0.100000 -0.826485
v 0.600000 -0.048557 -0.836717
v 0.512803 -0.100000 -0.912803
v 0.552176 -0.048557 -0.952176
v -0.436717 0.100000 1.000000
v -0.552176 0.100000 0.952176
v -0.600000 0.100000 0.836717
v -0.552176 0.100000 -0.952176
v -0.436717 0.100000 -1.000000
v -0.600000 0.100000 -0.836717
v 0.552176 0.100000 -0.952176
v 0.600000 0.100000 -0.836717
v 0.436717 0.100000 -1.000000
v 0.552176 0.100000 0.952176
v 0.436717 0.100000 1.000000
v 0.600000 0.100000 0.836717
vn -0.0000 1.0000 -0.0000
vn -0.0814 -0.9088 0.4092
vn -0.1812 -0.3710 0.9108
vn -0.4092 -0.9088 0.0814
vn -0.9108 -0.3710 0.1812
vn -0.3095 -0.8991 0.3095
vn -0.6572 -0.3688 0.6572
vn -0.4092 -0.9088 -0.0814
vn -0.9108 -0.3710 -0.1812
vn -0.0814 -0.9088 -0.4092
vn -0.1812 -0.3710 -0.9108
vn -0.3095 -0.8991 -0.3095
vn -0.6572 -0.3688 -0.6572
vn 0.4092 -0.9088 0.0814
vn 0.9108 -0.3710 0.1812
vn 0.0814 -0.9088 0.4092
vn 0.1812 -0.3710 0.9108
vn 0.3095 -0.8991 0.3095
vn 0.6572 -0.3688 0.6572
vn 0.0814 -0.9088 -0.4092
vn 0.1812 -0.3710 -0.9108
vn 0.4092 -0.9088 -0.0814
vn 0.9108 -0.3710 -0.1812
vn 0.3095 -0.8991 -0.3095
vn 0.6572 -0.3688 -0.6572
vn -0.1456 0.6657 0.7319
vn -0.5490 0.6302 0.5490
vn -0.7319 0.6657 0.1456
vn -0.5490 0.6302 -0.5490
vn -0.1456 0.6657 -0.7319
vn -0.7319 0.6657 -0.1456
vn 0.5490 0.6302 -0.5490
vn 0.7319 0.6657 -0.1456
vn 0.1456 0.6657 -0.7319
vn 0.5490 0.6302 0.5490
vn 0.1456 0.6657 0.7319
vn 0.7319 0.6657 0.1456
vt 0.864340 0.645859
vt 0.813957 0.645859
vt 0.813957 0.606701
vt 0.864340 0.606701
vt 0.949617 0.325773
vt 1.000000 0.325773
vt 1.000000 0.367343
vt 0.949617 0.367343
vt 0.813957 0.000000
vt 0.864340 0.000000
vt 0.864340 0.039158
vt 0.813957 0.039158
vt 0.881787 0.000000
vt 0.932170 0.000000
vt 0.932170 0.039158
vt 0.881787 0.039158
vt 0.949617 0.035241
vt 1.000000 0.035241
vt 1.000000 0.693116
vt 0.949617 0.693116
vt 0.949617 0.402584
vt 1.000000 0.402584
vt 1.000000 0.734686
vt 0.949617 0.734686
vt 0.881787 0.606701
vt 0.932170 0.606701
vt 0.932170 0.645859
vt 0.881787 0.645859
vt 0.949617 0.367343
vt 1.000000 0.367343
vt 0.949617 -0.000000
vt 1.000000 -0.000000
vt 0.377406 0.029573
vt 0.348131 0.017447
vt 0.351602 0.000000
vt 0.390759 0.016220
vt 0.389532 0.058848
vt 0.406979 0.055377
vt 0.348131 0.660851
vt 0.377406 0.648725
vt 0.390759 0.662078
vt 0.351602 0.678298
vt 0.389532 0.619450
vt 0.406979 0.622921
vt 0.017447 0.619450
vt 0.029573 0.648725
vt 0.016220 0.662078
vt 0.000000 0.622921
vt 0.058848 0.660851
vt 0.055377 0.678298
vt 0.058848 0.017447
vt 0.029573 0.029573
vt 0.016220 0.016220
vt 0.055377 0.000000
vt 0.017447 0.058848
vt 0.000000 0.055377
vt 0.881787 0.042628
vt 0.881787 0.603231
vt 0.949617 0.042628
vt 0.949617 0.603231
vt 0.464955 0.013068
vt 0.433200 0.026221
vt 0.423198 0.016220
vt 0.462356 0.000000
vt 0.420046 0.057976
vt 0.433200 0.652076
vt 0.464955 0.665230
vt 0.462356 0.678298
vt 0.423198 0.662078
vt 0.420046 0.620321
vt 0.787736 0.652076
vt 0.800890 0.620321
vt 0.813957 0.622921
vt 0.797738 0.662078
vt 0.755981 0.665230
vt 0.758580 0.678298
vt 0.787736 0.026221
vt 0.755981 0.013068
vt 0.758580 0.000000
vt 0.797738 0.016220
vt 0.800890 0.057976
vt 0.813957 0.055377
s 1
f 18/1/7 38/2/27 39/3/28 16/4/5
f 47/5/36 28/6/17 30/7/19 46/8/35
f 40/9/29 24/10/13 20/11/9 42/12/31
f 46/13/35 30/14/19 26/15/15 48/16/37
f 28/6/17 47/5/36 37/17/26 14/18/3
f 16/4/5 39/3/28 42/12/31 20/11/9
f 22/19/11 41/20/30 45/21/34 32/22/21
f 41/20/30 22/19/11 24/23/13 40/24/29
f 44/25/33 34/26/23 36/27/25 43/28/32
f 43/29/32 36/30/25 32/22/21 45/21/34
f 34/26/23 44/25/33 48/16/37 26/15/15
f 14/18/3 37/17/26 38/31/27 18/32/7
f 17/33/6 13/34/2 14/35/3 18/36/7
f 15/37/4 17/33/6 18/36/7 16/38/5
f 21/39/10 23/40/12 24/41/13 22/42/11
f 23/40/12 19/43/8 20/44/9 24/41/13
f 33/45/22 35/46/24 36/47/25 34/48/23
f 35/46/24 31/49/20 32/50/21 36/47/25
f 27/51/16 29/52/18 30/53/19 28/54/17
f 29/52/18 25/55/14 26/56/15 30/53/19
f 16/4/5 20/11/9 19/57/8 15/58/4
f 22/42/11 32/50/21 31/49/20 21/39/10
f 34/26/23 26/15/15 25/59/14 33/60/22
f 28/54/17 14/35/3 13/34/2 27/51/16
f 19/43/8 23/40/12 21/39/10 31/49/20 35/46/24 33/45/22 25/55/14 29/52/18 27/51/16 13/34/2 17/33/6 15/37/4
f 2/61/1 3/62/1 38/63/27 37/64/26
f 3/62/1 1/65/1 39/38/28 38/63/27
f 6/66/1 4/67/1 41/68/30 40/69/29
f 5/70/1 6/66/1 40/69/29 42/44/31
f 12/71/1 10/72/1 44/73/33 43/74/32
f 11/75/1 12/71/1 43/74/32 45/76/34
f 9/77/1 7/78/1 47/79/36 46/80/35
f 8/81/1 9/77/1 46/80/35 48/82/37
f 1/65/1 5/70/1 42/44/31 39/38/28
f 7/78/1 2/61/1 37/64/26 47/79/36
f 10/72/1 8/81/1 48/82/37 44/73/33
f 4/67/1 11/75/1 45/76/34 41/68/30
