# Blender 4.5.2 LTS
# www.blender.org
mtllib phycis.mtl
o base3\
v -20.789999 -31.000000 21.000000
v -20.789999 -21.000000 21.000000
v -20.789999 -31.000000 -21.000000
v -20.789999 -13.000000 -21.000000
v 20.789999 -31.000000 21.000000
v 20.789999 -21.000000 21.000000
v 20.789999 -31.000000 -21.000000
v 20.789999 -13.000000 -21.000000
v -18.711000 -13.000000 -21.000000
v -18.711000 -21.000000 21.000000
v 18.814949 -13.000000 -21.000000
v 18.814949 -21.000000 21.000000
v -20.789999 -18.052984 21.561337
v -20.789999 -10.052984 -20.438663
v 18.814949 -10.052984 -20.438663
v 20.789999 -10.052984 -20.438663
v 20.789999 -18.052984 21.561337
v -18.711000 -18.052984 21.561337
v -18.711000 -10.052984 -20.438663
v 18.814949 -18.052984 21.561337
vn -0.5774 -0.5774 0.5774
vn -0.6866 -0.0683 0.7239
vn -0.5774 -0.5774 -0.5774
vn -0.6866 0.0683 -0.7239
vn 0.5774 -0.5774 0.5774
vn 0.6866 -0.0683 0.7239
vn 0.5774 -0.5774 -0.5774
vn 0.6866 0.0683 -0.7239
vn 0.3134 0.3665 -0.8760
vn 0.2926 0.2327 0.9275
vn -0.3134 0.3665 -0.8760
vn -0.2926 0.2327 0.9275
vn -0.5774 0.4591 0.6752
vn -0.5774 0.6752 -0.4591
vn 0.5774 0.6752 -0.4591
vn 0.5774 0.4591 0.6752
vt 0.000000 1.000000
vt 0.000000 0.500000
vt 0.023810 0.500000
vt 0.023810 1.000000
vt 0.023810 1.000000
vt 0.023810 0.500000
vt 0.047619 0.500000
vt 0.047619 1.000000
vt 0.071429 0.971488
vt 0.071429 0.524750
vt 0.071429 0.500000
vt 0.095238 0.500000
vt 0.095238 0.995000
vt 0.071429 0.995000
vt 0.047619 0.970250
vt 0.047619 0.995000
vt 0.966487 0.500000
vt 0.519750 0.500000
vt 0.519750 0.000000
vt 0.966487 0.000000
vt 0.495000 0.500000
vt 0.000000 0.500000
vt 0.000000 0.000000
vt 0.495000 0.000000
vt 0.047619 0.523513
vt 0.047619 0.500000
vt 0.071429 0.500000
vt 0.071429 0.995000
vt 0.990000 0.500000
vt 0.990000 0.000000
s 1
f 2/1/2 13/1/13 14/2/14 4/2/4 3/3/3 1/4/1
f 8/5/8 16/5/15 17/6/16 6/6/6 5/7/5 7/8/7
f 12/9/12 10/10/10 2/11/2 1/12/1 5/13/5 6/14/6
f 9/15/9 4/16/4 14/16/14 19/15/15
f 11/17/11 9/18/9 10/19/10 12/20/12
f 3/21/3 7/22/7 5/23/5 1/24/1
f 9/15/9 11/25/11 8/26/8 7/27/7 3/28/3 4/16/4
f 19/18/15 14/21/14 13/24/13 18/19/16
f 16/29/15 15/17/14 20/20/13 17/30/16
f 2/11/2 10/10/10 18/10/16 13/11/13
f 10/19/10 9/18/9 19/18/15 18/19/16
f 8/26/8 11/25/11 15/25/14 16/26/15
f 11/17/11 12/20/12 20/20/13 15/17/14
f 12/9/12 6/14/6 17/14/16 20/9/13
o base2\
v -19.225765 -2.931201 11.100000
v -11.100000 -2.931201 19.225765
v -19.225765 2.931201 11.100000
v -11.100000 2.931201 19.225765
v -22.200001 -2.931201 0.000000
v -19.225765 -2.931201 -11.100000
v -11.100000 -2.931201 -19.225765
v -22.200001 2.931201 0.000000
v -19.225765 2.931201 -11.100000
v -11.100000 2.931201 -19.225765
v 0.000000 -2.931201 22.200001
v 11.100000 -2.931201 19.225765
v 19.225765 -2.931201 11.100000
v 20.935341 -2.931201 4.719777
v 0.000000 2.931201 22.200001
v 11.100000 2.931201 19.225765
v 19.225765 2.931201 11.100000
v 20.935341 2.931201 4.719777
v 0.000000 -2.931201 0.000000
v 0.000000 -2.931201 -22.200001
v 22.200001 -2.931201 0.000000
v 11.100000 -2.931201 -19.225765
v 19.225765 -2.931201 -11.100000
v 0.000000 2.931201 0.000000
v 0.000000 2.931201 -22.200001
v 22.200001 2.931201 0.000000
v 11.100000 2.931201 -19.225765
v 19.225765 2.931201 -11.100000
vn -0.6557 -0.6532 0.3786
vn -0.3786 -0.6532 0.6557
vn -0.6557 0.6532 0.3786
vn -0.3786 0.6532 0.6557
vn -0.7572 -0.6532 -0.0000
vn -0.6557 -0.6532 -0.3786
vn -0.3786 -0.6532 -0.6557
vn -0.7572 0.6532 -0.0000
vn -0.6557 0.6532 -0.3786
vn -0.3786 0.6532 -0.6557
vn -0.0000 -0.6532 0.7572
vn 0.3786 -0.6532 0.6557
vn 0.6557 -0.6532 0.3786
vn 0.6830 -0.7071 0.1830
vn -0.0000 0.6532 0.7572
vn 0.3786 0.6532 0.6557
vn 0.6557 0.6532 0.3786
vn 0.6830 0.7071 0.1830
vn 0.5945 -0.5414 -0.5945
vn -0.0000 -0.6532 -0.7572
vn 0.7572 -0.6532 -0.0000
vn 0.7624 -0.5648 -0.3158
vn 0.3158 -0.5648 -0.7624
vn 0.5945 0.5414 -0.5945
vn -0.0000 0.6532 -0.7572
vn 0.7572 0.6532 -0.0000
vn 0.7624 0.5648 -0.3158
vn 0.3158 0.5648 -0.7624
vt 0.250000 0.625000
vt 0.354944 0.564411
vt 0.364276 0.650763
vt 0.354944 0.685590
vt 0.310590 0.729944
vt 0.250000 0.746179
vt 0.189410 0.729944
vt 0.145056 0.685590
vt 0.128821 0.625000
vt 0.145056 0.564411
vt 0.189410 0.520056
vt 0.250000 0.503821
vt 0.310590 0.520056
vt 0.371179 0.625000
vt 0.854944 0.564411
vt 0.871179 0.625000
vt 0.854944 0.685590
vt 0.810590 0.729944
vt 0.750000 0.746179
vt 0.689411 0.729944
vt 0.645056 0.685590
vt 0.635724 0.650763
vt 0.645056 0.564411
vt 0.750000 0.625000
vt 0.689411 0.520056
vt 0.750000 0.503821
vt 0.810590 0.520056
vt 0.628821 0.625000
vt 0.250000 0.250000
vt 0.370000 0.457846
vt 0.457846 0.370000
vt 0.916667 0.688872
vt 1.000000 0.688872
vt 1.000000 0.811128
vt 0.916667 0.811128
vt 0.750000 0.688872
vt 0.833333 0.688872
vt 0.833333 0.811128
vt 0.750000 0.811128
vt 0.666667 0.688872
vt 0.714566 0.688872
vt 0.714566 0.811128
vt 0.666667 0.811128
vt 0.583333 0.688872
vt 0.583333 0.811128
vt 0.500000 0.688872
vt 0.500000 0.811128
vt 0.416667 0.688872
vt 0.416667 0.811128
vt 0.333333 0.688872
vt 0.333333 0.811128
vt 0.250000 0.688872
vt 0.250000 0.811128
vt 0.166667 0.688872
vt 0.166667 0.811128
vt 0.083333 0.688872
vt 0.083333 0.811128
vt 0.000000 0.688872
vt 0.000000 0.811128
s 1
usemtl 
f 39/31/35 43/32/39 34/33/30 33/34/29 32/35/28 31/36/27 22/37/18 21/38/17 25/39/21 26/40/22 27/41/23 40/42/36 42/43/38
f 43/32/39 41/44/37 34/33/30
f 29/45/25 28/46/24 23/47/19 24/48/20 35/49/31 36/50/32 37/51/33 38/52/34 48/53/44 44/54/40 47/55/43 45/56/41 30/57/26
f 38/52/34 46/58/42 48/53/44
f 39/59/35 42/60/38 47/60/43 44/59/40
f 43/61/39 39/59/35 44/59/40 48/61/44
f 42/62/38 40/63/36 45/64/41 47/65/43
f 41/66/37 43/67/39 48/68/44 46/69/42
f 33/70/29 34/71/30 41/66/37 46/69/42 38/72/34 37/73/33
f 32/74/28 33/70/29 37/73/33 36/75/32
f 31/76/27 32/74/28 36/75/32 35/77/31
f 22/78/18 31/76/27 35/77/31 24/79/20
f 21/80/17 22/78/18 24/79/20 23/81/19
f 25/82/21 21/80/17 23/81/19 28/83/24
f 26/84/22 25/82/21 28/83/24 29/85/25
f 27/86/23 26/84/22 29/85/25 30/87/26
f 40/88/36 27/86/23 30/87/26 45/89/41
o fan
v 0.000000 2.700000 -1.000000
v 0.000000 10.300000 -1.000000
v 0.707107 2.700000 -0.707107
v 0.707107 10.300000 -0.707107
v 1.000000 2.700000 0.000000
v 1.000000 10.300000 0.000000
v 0.707107 2.700000 0.707107
v 0.707107 10.300000 0.707107
v 0.000000 2.700000 1.000000
v 0.000000 10.300000 1.000000
v -0.707107 2.700000 0.707107
v -0.707107 10.300000 0.707107
v -1.000000 2.700000 0.000000
v -1.000000 10.300000 0.000000
v -0.707107 2.700000 -0.707107
v -0.707107 10.300000 -0.707107
v 0.000000 3.428127 -1.000000
v 0.707107 3.428127 -0.707107
v 1.000000 3.428127 0.000000
v 0.707107 3.428127 0.707107
v 0.000000 3.428127 1.000000
v -0.707107 3.428127 0.707107
v -1.000000 3.428127 0.000000
v -0.707107 3.428127 -0.707107
v 20.401470 10.300000 -8.036352
v 20.108578 10.300000 -8.743459
v 20.108578 3.428127 -8.743459
v 20.401470 3.428127 -8.036352
vn -0.0000 -0.6303 -0.7764
vn -0.0000 0.6303 -0.7764
vn 0.5490 -0.6303 -0.5490
vn -0.0000 0.8042 -0.5944
vn 0.7764 -0.6303 -0.0000
vn 0.4203 0.8042 0.4203
vn 0.5490 -0.6303 0.5490
vn 0.5490 0.6303 0.5490
vn -0.0000 -0.6303 0.7764
vn -0.0000 0.6303 0.7764
vn -0.5490 -0.6303 0.5490
vn -0.5490 0.6303 0.5490
vn -0.7764 -0.6303 -0.0000
vn -0.7764 0.6303 -0.0000
vn -0.5490 -0.6303 -0.5490
vn -0.5490 0.6303 -0.5490
vn -0.0000 -0.0000 -1.0000
vn 0.3673 -0.2811 -0.8866
vn 0.8866 -0.2811 0.3673
vn 0.7071 -0.0000 0.7071
vn -0.0000 -0.0000 1.0000
vn -0.7071 -0.0000 0.7071
vn -1.0000 -0.0000 -0.0000
vn -0.7071 -0.0000 -0.7071
vn 0.7543 0.5773 0.3125
vn 0.3125 0.5774 -0.7543
vn 0.3125 -0.5774 -0.7543
vn 0.7543 -0.5773 0.3125
vt 1.000000 0.547903
vt 1.000000 1.000000
vt 0.875000 1.000000
vt 0.875000 0.547903
vt 0.419706 0.419706
vt 0.490000 0.250000
vt 0.750000 0.547903
vt 0.750000 1.000000
vt 0.625000 1.000000
vt 0.625000 0.547903
vt 0.500000 1.000000
vt 0.500000 0.547903
vt 0.375000 1.000000
vt 0.375000 0.547903
vt 0.250000 1.000000
vt 0.250000 0.547903
vt 0.250000 0.490000
vt 0.080294 0.419706
vt 0.010000 0.250000
vt 0.080294 0.080294
vt 0.250000 0.010000
vt 0.419706 0.080294
vt 0.125000 1.000000
vt 0.125000 0.547903
vt 0.000000 1.000000
vt 0.000000 0.547903
vt 0.750000 0.490000
vt 0.919706 0.419706
vt 0.990000 0.250000
vt 0.919706 0.080294
vt 0.750000 0.010000
vt 0.580294 0.080294
vt 0.510000 0.250000
vt 0.580294 0.419706
vt 0.125000 0.500000
vt 0.000000 0.500000
vt 0.250000 0.500000
vt 0.375000 0.500000
vt 0.500000 0.500000
vt 0.625000 0.500000
vt 0.750000 0.500000
vt 0.875000 0.500000
vt 1.000000 0.500000
s 1
f 65/90/61 50/91/46 52/92/48 66/93/62
f 52/94/48 54/95/50 73/95/69 74/94/70
f 67/96/63 54/97/50 56/98/52 68/99/64
f 68/99/64 56/98/52 58/100/54 69/101/65
f 69/101/65 58/100/54 60/102/56 70/103/66
f 70/103/66 60/102/56 62/104/58 71/105/67
f 52/94/48 50/106/46 64/107/60 62/108/58 60/109/56 58/110/54 56/111/52 54/95/50
f 71/105/67 62/104/58 64/112/60 72/113/68
f 72/113/68 64/112/60 50/114/46 65/115/61
f 49/116/45 51/117/47 53/118/49 55/119/51 57/120/53 59/121/55 61/122/57 63/123/59
f 63/124/59 72/113/68 65/115/61 49/125/45
f 61/126/57 71/105/67 72/113/68 63/124/59
f 59/127/55 70/103/66 71/105/67 61/126/57
f 57/128/53 69/101/65 70/103/66 59/127/55
f 55/129/51 68/99/64 69/101/65 57/128/53
f 53/130/49 67/96/63 68/99/64 55/129/51
f 51/131/47 66/93/62 67/96/63 53/130/49
f 49/132/45 65/90/61 66/93/62 51/131/47
f 75/93/71 74/92/70 73/97/69 76/96/72
f 67/96/63 66/93/62 75/93/71 76/96/72
f 66/93/62 52/92/48 74/92/70 75/93/71
f 54/97/50 67/96/63 76/96/72 73/97/69
o base
v -22.900000 -9.672961 22.900000
v -19.225765 -9.672961 11.100000
v -11.100000 -9.672961 19.225765
v -22.900000 9.672961 22.900000
v -19.225765 9.672961 11.100000
v -11.100000 9.672961 19.225765
v -22.200001 -9.672961 0.000000
v -19.225765 -9.672961 -11.100000
v -22.900000 -9.672961 -22.900000
v -11.100000 -9.672961 -19.225765
v -22.200001 9.672961 0.000000
v -19.225765 9.672961 -11.100000
v -22.900000 9.672961 -22.900000
v -11.100000 9.672961 -19.225765
v 0.000000 -9.672961 22.200001
v 11.100000 -9.672961 19.225765
v 22.900000 -9.672961 22.900000
v 19.225765 -9.672961 11.100000
v 20.935341 -9.672961 4.719776
v 0.000000 9.672961 22.200001
v 11.100000 9.672961 19.225765
v 22.900000 9.672961 22.900000
v 19.225765 9.672961 11.100000
v 20.935341 9.672961 4.719776
v 0.000000 -9.672961 -22.200001
v 11.100000 -9.672961 -19.225765
v 22.200001 -9.672961 0.000000
v 19.225765 -9.672961 -11.100000
v 22.900000 -9.672961 -22.900000
v 0.000000 9.672961 -22.200001
v 11.100000 9.672961 -19.225765
v 22.200001 9.672961 0.000000
v 19.225765 9.672961 -11.100000
v 22.900000 9.672961 -22.900000
vn -0.5774 -0.5774 0.5774
vn 0.6557 -0.6532 -0.3786
vn 0.3786 -0.6532 -0.6557
vn -0.5774 0.5774 0.5774
vn 0.6557 0.6532 -0.3786
vn 0.3786 0.6532 -0.6557
vn 0.7572 -0.6532 -0.0000
vn 0.6557 -0.6532 0.3786
vn -0.5774 -0.5774 -0.5774
vn 0.3786 -0.6532 0.6557
vn 0.7572 0.6532 -0.0000
vn 0.6557 0.6532 0.3786
vn -0.5774 0.5774 -0.5774
vn 0.3786 0.6532 0.6557
vn -0.0000 -0.6532 -0.7572
vn -0.3786 -0.6532 -0.6557
vn 0.5773 -0.5774 0.5773
vn -0.6557 -0.6532 -0.3786
vn -0.6830 -0.7071 -0.1830
vn -0.0000 0.6532 -0.7572
vn -0.3786 0.6532 -0.6557
vn 0.5773 0.5774 0.5773
vn -0.6557 0.6532 -0.3786
vn -0.6830 0.7071 -0.1830
vn -0.0000 -0.6532 0.7572
vn -0.3189 -0.7703 0.5523
vn -0.7572 -0.6532 -0.0000
vn -0.6557 -0.6532 0.3786
vn 0.5774 -0.5773 -0.5774
vn -0.0000 0.6532 0.7572
vn -0.3189 0.7703 0.5523
vn -0.7572 0.6532 -0.0000
vn -0.6557 0.6532 0.3786
vn 0.5774 0.5773 -0.5774
vt 0.375000 0.000000
vt 0.625000 0.000000
vt 0.625000 0.250000
vt 0.375000 0.250000
vt 0.625000 0.500000
vt 0.375000 0.500000
vt 0.625000 0.750000
vt 0.375000 0.750000
vt 0.625000 1.000000
vt 0.375000 1.000000
vt 0.189410 0.520056
vt 0.145056 0.564411
vt 0.128821 0.625000
vt 0.145056 0.685590
vt 0.189410 0.729944
vt 0.250000 0.746179
vt 0.310590 0.729944
vt 0.354944 0.685590
vt 0.364276 0.650763
vt 0.125000 0.750000
vt 0.125000 0.500000
vt 0.310590 0.520056
vt 0.250000 0.503821
vt 0.371179 0.625000
vt 0.354944 0.564411
vt 0.875000 0.500000
vt 0.875000 0.750000
vt 0.635724 0.650763
vt 0.645056 0.685590
vt 0.689411 0.729944
vt 0.750000 0.746179
vt 0.810590 0.729944
vt 0.854944 0.685590
vt 0.871179 0.625000
vt 0.854944 0.564411
vt 0.810590 0.520056
vt 0.750000 0.503821
vt 0.689411 0.520056
vt 0.645056 0.564411
vt 0.628821 0.625000
vt 0.370000 0.457846
vt 0.457846 0.370000
vt 1.000000 0.548278
vt 0.916667 0.548278
vt 0.916667 0.951722
vt 1.000000 0.951722
vt 0.833333 0.548278
vt 0.750000 0.548278
vt 0.750000 0.951722
vt 0.833333 0.951722
vt 0.714566 0.548278
vt 0.666667 0.548278
vt 0.666667 0.951722
vt 0.714566 0.951722
vt 0.583333 0.548278
vt 0.583333 0.951722
vt 0.500000 0.548278
vt 0.500000 0.951722
vt 0.416667 0.548278
vt 0.416667 0.951722
vt 0.333333 0.548278
vt 0.333333 0.951722
vt 0.250000 0.548278
vt 0.250000 0.951722
vt 0.166667 0.548278
vt 0.166667 0.951722
vt 0.083333 0.548278
vt 0.083333 0.951722
vt 0.000000 0.548278
vt 0.000000 0.951722
s 1
usemtl 
f 77/133/73 80/134/76 89/135/85 85/136/81
f 85/136/81 89/135/85 110/137/106 105/138/101
f 98/139/94 93/140/89 105/138/101 110/137/106
f 80/141/76 77/142/73 93/140/89 98/139/94
f 86/143/82 84/144/80 83/145/79 78/146/74 79/147/75 91/148/87 92/149/88 94/150/90 95/151/91 93/140/89 77/152/73 85/153/81 105/138/101 102/154/98 101/155/97
f 93/140/89 95/151/91 103/156/99 104/157/100 102/154/98 105/138/101
f 89/158/85 80/159/76 98/139/94 100/160/96 99/161/95 97/162/93 96/163/92 82/164/78 81/165/77 87/166/83 88/167/84 90/168/86 106/169/102 107/170/103 110/137/106
f 107/170/103 109/171/105 108/172/104 100/160/96 98/139/94 110/137/106
f 102/173/98 104/174/100 109/174/105 107/173/103
f 101/175/97 102/176/98 107/177/103 106/178/102
f 104/179/100 103/180/99 108/181/104 109/182/105
f 95/183/91 94/184/90 99/185/95 100/186/96 108/181/104 103/180/99
f 94/184/90 92/187/88 97/188/93 99/185/95
f 92/187/88 91/189/87 96/190/92 97/188/93
f 91/189/87 79/191/75 82/192/78 96/190/92
f 79/191/75 78/193/74 81/194/77 82/192/78
f 78/193/74 83/195/79 87/196/83 81/194/77
f 83/195/79 84/197/80 88/198/84 87/196/83
f 84/197/80 86/199/82 90/200/86 88/198/84
f 86/199/82 101/201/97 106/202/102 90/200/86
o long1
v -1.950000 -1.950000 41.920002
v -1.950000 1.950000 41.920002
v -1.950000 -1.950000 -10.919999
v -1.950000 3.950000 -10.919999
v 1.950000 -1.950000 41.920002
v 1.950000 1.950000 41.920002
v 1.950000 -1.950000 -10.919999
v 1.950000 3.950000 -10.919999
v -1.950000 -1.950000 -6.552000
v -1.950000 1.950000 -6.552000
v 1.950000 -1.950000 -6.552000
v 1.950000 1.950000 -6.552000
vn -0.5774 -0.5774 0.5774
vn -0.5774 0.5774 0.5774
vn -0.5774 -0.5774 -0.5774
vn -0.5581 0.6983 -0.4483
vn 0.5774 -0.5774 0.5774
vn 0.5774 0.5774 0.5774
vn 0.5774 -0.5774 -0.5774
vn 0.5581 0.6983 -0.4483
vn -0.7071 -0.7071 -0.0000
vn -0.7584 0.6369 0.1389
vn 0.7071 -0.7071 -0.0000
vn 0.7584 0.6369 0.1389
vt 0.375000 0.200000
vt 0.625000 0.200000
vt 0.625000 0.250000
vt 0.375000 0.250000
vt 0.625000 0.500000
vt 0.375000 0.500000
vt 0.375000 0.550000
vt 0.625000 0.550000
vt 0.625000 0.750000
vt 0.375000 0.750000
vt 0.625000 1.000000
vt 0.375000 1.000000
vt 0.125000 0.550000
vt 0.125000 0.750000
vt 0.875000 0.550000
vt 0.875000 0.750000
vt 0.875000 0.500000
vt 0.125000 0.500000
vt 0.375000 0.000000
vt 0.625000 0.000000
s 1
f 119/203/115 120/204/116 114/205/110 113/206/109
f 113/206/109 114/205/110 118/207/114 117/208/113
f 121/209/117 122/210/118 116/211/112 115/212/111
f 115/212/111 116/211/112 112/213/108 111/214/107
f 119/215/115 121/209/117 115/212/111 111/216/107
f 122/210/118 120/217/116 112/218/108 116/211/112
f 118/207/114 114/219/110 120/217/116 122/210/118
f 113/220/109 117/208/113 121/209/117 119/215/115
f 117/208/113 118/207/114 122/210/118 121/209/117
f 111/221/107 112/222/108 120/204/116 119/203/115
o domino
v -1.500000 -2.973979 0.200000
v -1.500000 2.973979 0.200000
v -1.500000 -2.973979 -0.200000
v -1.500000 2.973979 -0.200000
v 1.500000 -2.973979 0.200000
v 1.500000 2.973979 0.200000
v 1.500000 -2.973979 -0.200000
v 1.500000 2.973979 -0.200000
vn -0.5774 -0.5774 0.5774
vn -0.5774 0.5774 0.5774
vn -0.5774 -0.5774 -0.5774
vn -0.5774 0.5774 -0.5774
vn 0.5774 -0.5774 0.5774
vn 0.5774 0.5774 0.5774
vn 0.5774 -0.5774 -0.5774
vn 0.5774 0.5774 -0.5774
vt 0.375000 0.000000
vt 0.625000 0.000000
vt 0.625000 0.250000
vt 0.375000 0.250000
vt 0.625000 0.500000
vt 0.375000 0.500000
vt 0.625000 0.750000
vt 0.375000 0.750000
vt 0.625000 1.000000
vt 0.375000 1.000000
vt 0.125000 0.500000
vt 0.125000 0.750000
vt 0.875000 0.500000
vt 0.875000 0.750000
s 1
f 123/223/119 124/224/120 126/225/122 125/226/121
f 125/226/121 126/225/122 130/227/126 129/228/125
f 129/228/125 130/227/126 128/229/124 127/230/123
f 127/230/123 128/229/124 124/231/120 123/232/119
f 125/233/121 129/228/125 127/230/123 123/234/119
f 130/227/126 126/235/122 124/236/120 128/229/124
