# Blender 4.5.2 LTS
# www.blender.org
o rail
v -0.030791 0.908451 -2.043994
v -0.055663 0.484182 -2.190863
v -0.030792 -0.617940 2.149730
v -0.055662 -1.037354 1.989524
v -0.709175 1.159930 -1.939443
v -0.744337 0.484182 -2.190863
v -0.709175 -0.358092 2.231287
v -0.744338 -1.037354 1.989524
v 0.709175 1.159930 -1.939443
v 0.744337 0.484182 -2.190863
v 0.709174 -0.358092 2.231287
v 0.744337 -1.037354 1.989524
v 0.030791 0.908451 -2.043994
v 0.055663 0.484182 -2.190863
v 0.030792 -0.617940 2.149730
v 0.055662 -1.037354 1.989524
v -0.200000 0.758388 -1.937460
v -0.200000 0.570449 -2.005864
v -0.200000 -0.664416 1.971662
v -0.200000 -0.852355 1.903257
v -0.600000 0.946326 -1.869056
v -0.600000 0.570449 -2.005864
v -0.600000 -0.476478 2.040065
v -0.600000 -0.852355 1.903257
v 0.600000 0.946326 -1.869056
v 0.600000 0.570449 -2.005864
v 0.600000 -0.476478 2.040065
v 0.600000 -0.852355 1.903257
v 0.200000 0.758388 -1.937460
v 0.200000 0.570449 -2.005864
v 0.200000 -0.664416 1.971662
v 0.200000 -0.852355 1.903257
vn 0.6719 0.6106 -0.4192
vn 0.5596 -0.3581 -0.7474
vn 0.6719 0.1983 0.7137
vn 0.5596 -0.7548 0.3424
vn -0.4491 0.8467 -0.2855
vn -0.5939 -0.3338 -0.7320
vn -0.4491 0.4651 0.7629
vn -0.5939 -0.7262 0.3462
vn 0.4491 0.8467 -0.2855
vn 0.5939 -0.3338 -0.7320
vn 0.4491 0.4651 0.7629
vn 0.5939 -0.7262 0.3462
vn -0.6719 0.6106 -0.4192
vn -0.5596 -0.3581 -0.7474
vn -0.6719 0.1983 0.7137
vn -0.5596 -0.7548 0.3424
vn -0.6768 -0.6003 0.4261
vn -0.5774 0.3451 0.7400
vn -0.6768 -0.1859 -0.7123
vn -0.5774 0.7400 -0.3451
vn 0.4367 -0.8544 0.2815
vn 0.5774 0.3451 0.7400
vn 0.4367 -0.4735 -0.7649
vn 0.5774 0.7400 -0.3451
vn -0.4367 -0.8544 0.2815
vn -0.4367 -0.4735 -0.7649
vn 0.6768 -0.6003 0.4261
vn 0.6768 -0.1859 -0.7123
vt 0.183520 -0.000000
vt 0.273543 0.001557
vt 0.273543 0.566479
vt 0.183520 0.568036
vt 0.273921 0.653836
vt 0.273543 0.596611
vt 0.361472 0.566230
vt 0.361472 0.658106
vt 0.091760 0.566230
vt 0.000000 0.565576
vt -0.000000 0.000654
vt 0.091760 0.000000
vt 0.273543 -0.000000
vt 0.361198 -0.000000
vt 0.361198 0.566230
vt 0.273543 0.566230
vt 0.530141 0.000903
vt 0.587284 -0.000000
vt 0.587284 0.568036
vt 0.530141 0.567133
vt 0.000000 0.658106
vt -0.000000 0.566230
vt 0.087929 0.596611
vt 0.087551 0.653836
vt 0.448853 0.001557
vt 0.530141 -0.000000
vt 0.530141 0.568036
vt 0.448853 0.566479
vt 0.183520 0.659912
vt 0.183520 0.568036
vt 0.271449 0.598417
vt 0.271071 0.655642
vt 0.644427 0.567133
vt 0.587284 0.000000
vt 0.644427 0.000903
vt 0.361198 -0.000000
vt 0.448852 -0.000000
vt 0.448852 0.566230
vt 0.091760 0.000000
vt 0.183520 0.000654
vt 0.183520 0.565576
vt 0.091760 0.566230
vt 0.088308 0.653836
vt 0.087929 0.596611
vt 0.175859 0.566230
vt 0.175859 0.658106
vt 0.695340 -0.000000
vt 0.695340 0.529487
vt 0.644427 0.529487
vt 0.644427 -0.000000
vt 0.638196 0.618948
vt 0.587284 0.618948
vt 0.587284 0.568036
vt 0.638196 0.593492
vt 0.695340 0.529487
vt 0.695340 -0.000000
vt 0.746252 -0.000000
vt 0.746252 0.529487
vt 0.898582 0.000000
vt 0.898582 0.529487
vt 0.848076 0.529487
vt 0.848076 0.000000
vt 0.974544 -0.000000
vt 0.974544 0.529487
vt 0.949088 0.529487
vt 0.949088 0.000000
vt 0.412384 0.617142
vt 0.361472 0.617142
vt 0.361472 0.591686
vt 0.412384 0.566230
vt 0.848076 0.000000
vt 0.848076 0.529487
vt 0.797164 0.529487
vt 0.797164 -0.000000
vt 0.587284 0.618948
vt 0.536372 0.618948
vt 0.536372 0.593492
vt 0.587284 0.568036
vt 0.974544 0.529487
vt 0.974544 0.000000
vt 1.000000 0.000000
vt 1.000000 0.529487
vt 0.949088 0.000000
vt 0.949088 0.529487
vt 0.898582 0.529487
vt 0.898582 0.000000
vt 0.797164 -0.000000
vt 0.797164 0.529487
vt 0.746252 -0.000000
vt 0.499765 0.618948
vt 0.448852 0.618948
vt 0.448852 0.568036
vt 0.499765 0.593492
s 1
f 1/1/1 5/2/5 7/3/7 3/4/3
f 4/5/4 3/6/3 7/7/7 8/8/8
f 8/9/8 7/10/7 5/11/5 6/12/6
f 6/13/6 2/14/2 4/15/4 8/16/8
f 2/17/2 1/18/1 3/19/3 4/20/4
f 6/21/6 5/22/5 1/23/1 2/24/2
f 9/25/9 13/26/13 15/27/15 11/28/11
f 12/29/12 11/30/11 15/31/15 16/32/16
f 16/33/16 15/19/15 13/34/13 14/35/14
f 14/36/14 10/37/10 12/38/12 16/15/16
f 10/39/10 9/40/9 11/41/11 12/42/12
f 14/43/14 13/44/13 9/45/9 10/46/10
f 17/47/17 19/48/19 23/49/23 21/50/21
f 20/51/20 24/52/24 23/53/23 19/54/19
f 24/55/24 22/56/22 21/57/21 23/58/23
f 22/59/22 24/60/24 20/61/20 18/62/18
f 18/63/18 20/64/20 19/65/19 17/66/17
f 22/67/22 18/68/18 17/69/17 21/70/21
f 25/71/25 27/72/26 31/73/28 29/74/27
f 28/75/20 32/76/24 31/77/28 27/78/26
f 32/79/24 30/80/22 29/81/27 31/82/28
f 30/83/22 32/84/24 28/85/20 26/86/18
f 26/87/18 28/88/20 27/58/26 25/89/25
f 30/90/22 26/91/18 25/92/25 29/93/27
