# Blender 4.5.2 LTS
# www.blender.org
o Cylinder
v 0.000000 -1.000000 -1.461940
v -0.000000 0.839432 -1.101339
v 1.142991 -1.000000 -0.911505
v 0.723001 0.899888 -0.758449
v 1.425286 -1.000000 0.325312
v 0.901567 1.035730 0.012018
v 0.634312 -1.000000 1.317162
v 0.401235 1.144666 0.629885
v -0.634312 -1.000000 1.317162
v -0.401235 1.144666 0.629885
v -1.425286 -1.000000 0.325312
v -0.901567 1.035730 0.012018
v -1.142991 -1.000000 -0.911505
v -0.723001 0.899888 -0.758449
v 0.503613 2.860507 -0.687980
v -0.000000 2.776620 -0.915538
v 0.627996 3.048999 -0.176662
v 0.279484 3.200157 0.233383
v -0.279484 3.200157 0.233383
v -0.627996 3.048999 -0.176662
v -0.503613 2.860507 -0.687980
v 0.376291 5.516742 -0.569129
v -0.000000 5.479771 -0.746530
v 0.469228 5.599814 -0.170513
v 0.208826 5.666434 0.149153
v -0.208826 5.666434 0.149153
v -0.469228 5.599814 -0.170513
v -0.376291 5.516742 -0.569129
v 0.357300 7.955248 -0.856847
v 0.000001 7.897111 -1.018795
v 0.445546 8.085878 -0.492954
v 0.198287 8.190636 -0.201135
v -0.198286 8.190636 -0.201135
v -0.445544 8.085878 -0.492954
v -0.357299 7.955248 -0.856847
v 0.258436 10.574872 -1.674697
v 0.000001 10.504561 -1.777389
v 0.322264 10.732857 -1.443948
v 0.143421 10.859550 -1.258903
v -0.143420 10.859550 -1.258903
v -0.322263 10.732857 -1.443948
v -0.258434 10.574872 -1.674697
v 0.068116 12.741561 -3.667389
v 0.000001 12.718769 -3.690980
v 0.084939 12.792772 -3.614379
v 0.037802 12.833841 -3.571869
v -0.037800 12.833841 -3.571869
v -0.084938 12.792772 -3.614379
v -0.068115 12.741561 -3.667389
vn -0.0000 -0.5486 -0.8361
vn -0.0000 0.1432 -0.9897
vn 0.6628 -0.5380 -0.5207
vn 0.7549 0.1649 -0.6348
vn 0.8342 -0.5147 0.1982
vn 0.9574 0.2167 0.1911
vn 0.3737 -0.4964 0.7835
vn 0.4277 0.2610 0.8654
vn -0.3737 -0.4964 0.7835
vn -0.4277 0.2610 0.8654
vn -0.8342 -0.5147 0.1982
vn -0.9574 0.2167 0.1911
vn -0.6628 -0.5380 -0.5207
vn -0.7549 0.1649 -0.6348
vn 0.7565 0.0892 -0.6479
vn -0.0000 0.0792 -0.9969
vn 0.9752 0.1091 0.1925
vn 0.4364 0.1166 0.8922
vn -0.4364 0.1166 0.8922
vn -0.9752 0.1091 0.1925
vn -0.7565 0.0892 -0.6479
vn 0.7812 0.0005 -0.6242
vn -0.0000 -0.0196 -0.9998
vn 0.9703 0.0466 0.2373
vn 0.4219 0.0854 0.9026
vn -0.4219 0.0854 0.9026
vn -0.9703 0.0466 0.2373
vn -0.7812 0.0005 -0.6242
vn 0.7919 -0.1112 -0.6005
vn -0.0000 -0.1941 -0.9810
vn 0.9688 0.0804 0.2343
vn 0.4228 0.2369 0.8747
vn -0.4228 0.2369 0.8747
vn -0.9688 0.0804 0.2343
vn -0.7919 -0.1112 -0.6005
vn 0.8136 -0.2528 -0.5236
vn -0.0000 -0.4728 -0.8812
vn 0.9588 0.1991 0.2025
vn 0.4132 0.5370 0.7355
vn -0.4132 0.5370 0.7355
vn -0.9588 0.1991 0.2025
vn -0.8136 -0.2528 -0.5236
vn 0.5948 0.1329 -0.7928
vn -0.0000 -0.0713 -0.9975
vn 0.7367 0.5893 -0.3317
vn 0.3237 0.9456 0.0317
vn -0.3237 0.9456 0.0317
vn -0.7367 0.5893 -0.3317
vn -0.5948 0.1329 -0.7928
vt 0.600218 0.357589
vt 0.617098 0.252482
vt 0.669696 0.240689
vt 0.682708 0.343074
vt 0.196415 0.978406
vt 0.227494 0.849402
vt 0.283016 0.851611
vt 0.282330 0.996683
vt -0.000000 0.952201
vt 0.049276 0.823106
vt 0.082314 0.840991
vt 0.051152 0.991310
vt 0.137607 0.846487
vt 0.138565 1.000000
vt 0.173519 0.835457
vt 0.196415 0.971726
vt 0.317689 0.849563
vt 0.295428 0.711217
vt 0.319324 0.704423
vt 0.440506 0.996683
vt 0.439821 0.851611
vt 0.495342 0.849402
vt 0.526421 0.978406
vt 0.526421 0.317975
vt 0.570837 0.224812
vt 0.718856 0.456281
vt 0.680742 0.535425
vt 0.595101 0.554973
vt 0.526421 0.500203
vt 0.526421 0.412359
vt 0.595101 0.357589
vt 0.680742 0.377137
vt 0.670211 0.141682
vt 0.633343 0.151326
vt 0.655299 0.014610
vt 0.682708 0.008263
vt 0.427409 0.711217
vt 0.465764 0.716371
vt 0.104291 0.705132
vt 0.142806 0.708960
vt 0.601349 0.130623
vt 0.257072 0.716371
vt 0.405147 0.849563
vt 0.403512 0.704423
vt 0.439546 0.535350
vt 0.421549 0.537462
vt 0.405638 0.368474
vt 0.422630 0.368114
vt 0.392631 0.537743
vt 0.124142 0.554904
vt 0.152920 0.557765
vt 0.301288 0.537462
vt 0.330206 0.537743
vt 0.631256 0.000000
vt 0.374567 0.535980
vt 0.348269 0.535980
vt 0.378396 0.365042
vt 0.404831 0.172424
vt 0.423310 0.179639
vt 0.361418 0.360403
vt 0.344440 0.365042
vt 0.361418 0.360402
vt 0.283291 0.535350
vt 0.300206 0.368114
vt 0.317199 0.368474
vt 0.141094 0.391754
vt 0.168420 0.394471
vt 0.847046 0.364700
vt 0.864941 0.357589
vt 0.851762 0.495570
vt 0.847046 0.497204
vt 0.164352 0.196201
vt 0.184116 0.198166
vt 0.299527 0.179639
vt 0.318006 0.172424
vt 0.435055 0.181485
vt 0.393533 0.165273
vt 0.329304 0.165273
vt 0.287781 0.181485
vt 0.694176 0.349894
vt 0.691904 0.354611
vt 0.686801 0.355776
vt 0.682708 0.352512
vt 0.682708 0.347277
vt 0.686801 0.344013
vt 0.691904 0.345178
vt 0.519253 0.000000
vt 0.521928 0.002488
vt 0.200909 0.002488
vt 0.203584 -0.000000
vt 0.829151 0.357589
vt 0.842329 0.495570
vt 0.526421 0.005142
vt 0.191206 0.000000
vt 0.196415 0.000518
vt 0.196415 0.005142
s 1
f 1/1/1 2/2/2 4/3/4 3/4/3
f 3/5/3 4/6/4 6/7/6 5/8/5
f 5/9/5 6/10/6 8/11/8 7/12/7
f 7/12/7 8/11/8 10/13/10 9/14/9
f 9/14/9 10/13/10 12/15/12 11/16/11
f 8/17/8 6/7/6 17/18/17 18/19/18
f 11/20/11 12/21/12 14/22/14 13/23/13
f 13/24/13 14/25/14 2/2/2 1/1/1
f 1/26/1 3/27/3 5/28/5 7/29/7 9/30/9 11/31/11 13/32/13
f 15/33/15 16/34/16 23/35/23 22/36/22
f 14/22/14 12/21/12 20/37/20 21/38/21
f 10/13/10 8/11/8 18/39/18 19/40/19
f 2/2/2 14/25/14 21/41/21 16/34/16
f 6/7/6 4/6/4 15/42/15 17/18/17
f 12/21/12 10/43/10 19/44/19 20/37/20
f 4/3/4 2/2/2 16/34/16 15/33/15
f 23/45/23 28/46/28 35/47/35 30/48/30
f 21/38/21 20/37/20 27/49/27 28/46/28
f 19/40/19 18/39/18 25/50/25 26/51/26
f 17/18/17 15/42/15 22/52/22 24/53/24
f 16/34/16 21/41/21 28/54/28 23/35/23
f 20/37/20 19/44/19 26/55/26 27/49/27
f 18/19/18 17/18/17 24/53/24 25/56/25
f 35/47/35 34/57/34 41/58/41 42/59/42
f 27/49/27 26/55/26 33/60/33 34/57/34
f 25/56/25 24/53/24 31/61/31 32/62/32
f 22/52/22 23/63/23 30/64/30 29/65/29
f 28/46/28 27/49/27 34/57/34 35/47/35
f 26/51/26 25/50/25 32/66/32 33/67/33
f 24/53/24 22/52/22 29/65/29 31/61/31
f 37/68/37 42/69/42 49/70/49 44/71/44
f 33/67/33 32/66/32 39/72/39 40/73/40
f 31/61/31 29/65/29 36/74/36 38/75/38
f 30/48/30 35/47/35 42/59/42 37/76/37
f 34/57/34 33/60/33 40/77/40 41/58/41
f 32/62/32 31/61/31 38/75/38 39/78/39
f 29/65/29 30/64/30 37/79/37 36/74/36
f 43/80/43 44/81/44 49/82/49 48/83/48 47/84/47 46/85/46 45/86/45
f 41/58/41 40/77/40 47/87/47 48/88/48
f 39/78/39 38/75/38 45/89/45 46/90/46
f 36/91/36 37/68/37 44/71/44 43/92/43
f 42/59/42 41/58/41 48/88/48 49/93/49
f 40/73/40 39/72/39 46/94/46 47/95/47
f 38/75/38 36/74/36 43/96/43 45/89/45
o Cylinder.001
v -0.000000 6.245891 -0.641612
v -0.000000 8.115662 0.329075
v 0.346410 6.155679 -0.463114
v 0.245891 8.077120 0.465708
v 0.346410 5.975255 -0.106116
v 0.245891 8.000036 0.738975
v -0.000000 5.885044 0.072383
v -0.000000 7.961494 0.875609
v -0.346410 5.975255 -0.106116
v -0.245891 8.000036 0.738975
v -0.346410 6.155679 -0.463114
v -0.245891 8.077120 0.465708
v 0.096083 10.012112 0.708729
v 0.000000 10.016652 0.653441
v 0.096083 10.003033 0.819305
v 0.000000 9.998493 0.874592
v -0.096083 10.003033 0.819305
v -0.096083 10.012112 0.708729
vn -0.0000 -0.1814 -0.9834
vn -0.0000 0.3202 -0.9474
vn 0.6976 -0.3555 -0.6221
vn 0.8882 0.1839 -0.4212
vn 0.7003 -0.7057 0.1073
vn 0.8409 -0.0685 0.5368
vn -0.0000 -0.8809 0.4734
vn -0.0000 -0.1879 0.9822
vn -0.7003 -0.7057 0.1073
vn -0.8409 -0.0685 0.5368
vn -0.6976 -0.3555 -0.6221
vn -0.8882 0.1839 -0.4212
vn 0.6645 0.6726 -0.3256
vn -0.0000 0.7030 -0.7112
vn 0.6597 0.6078 0.4420
vn -0.0000 0.5739 0.8189
vn -0.6597 0.6078 0.4420
vn -0.6645 0.6726 -0.3256
vt 0.815372 0.636681
vt 0.809731 0.492225
vt 0.819540 0.492133
vt 0.829151 0.639217
vt 0.682708 0.281484
vt 0.692466 0.137002
vt 0.702397 0.137715
vt 0.696777 0.287757
vt 0.722017 0.136458
vt 0.724457 0.288618
vt 0.731706 0.134486
vt 0.738067 0.283208
vt 0.694007 0.000035
vt 0.697875 -0.000000
vt 0.773787 0.641024
vt 0.780299 0.489630
vt 0.790110 0.490974
vt 0.787690 0.637584
vt 0.730681 0.302467
vt 0.730681 0.330164
vt 0.706694 0.344013
vt 0.682708 0.330164
vt 0.682708 0.302467
vt 0.706694 0.288618
vt 0.750940 0.333344
vt 0.757593 0.337185
vt 0.757593 0.344868
vt 0.750940 0.348709
vt 0.744287 0.344868
vt 0.744287 0.337185
vt 0.682708 0.002454
vt 0.686423 0.001262
vt 0.813982 0.357589
vt 0.817651 0.359574
vt 0.825235 0.360793
vt 0.829151 0.360027
s 1
f 50/97/50 51/98/51 53/99/53 52/100/52
f 52/101/52 53/102/53 55/103/55 54/104/54
f 54/104/54 55/103/55 57/105/57 56/106/56
f 56/106/56 57/105/57 59/107/59 58/108/58
f 59/107/59 57/105/57 65/109/65 66/110/66
f 58/111/58 59/112/59 61/113/61 60/114/60
f 60/114/60 61/113/61 51/98/51 50/97/50
f 50/115/50 52/116/52 54/117/54 56/118/56 58/119/58 60/120/60
f 62/121/62 63/122/63 67/123/67 66/124/66 65/125/65 64/126/64
f 55/103/55 53/102/53 62/127/62 64/128/64
f 61/113/61 59/112/59 66/129/66 67/130/67
f 53/99/53 51/98/51 63/131/63 62/132/62
f 57/105/57 55/103/55 64/128/64 65/109/65
f 51/98/51 61/113/61 67/130/67 63/131/63
o Cylinder.002
v 0.090193 6.798803 -0.480896
v 0.653591 7.684687 -1.708147
v -0.101683 6.657009 -0.673533
v 0.524017 7.597352 -1.859676
v -0.011922 6.403030 -0.820057
v 0.600981 7.443698 -1.993262
v 0.269715 6.290846 -0.773943
v 0.807519 7.377381 -1.975319
v 0.461591 6.432641 -0.581306
v 0.937094 7.464716 -1.823790
v 0.371830 6.686619 -0.434782
v 0.860130 7.618370 -1.690204
v 0.938296 8.811801 -2.631142
v 1.003121 8.848893 -2.545752
v 0.983824 8.748571 -2.713597
v 1.094177 8.722434 -2.710661
v 1.159002 8.759525 -2.625270
v 1.113474 8.822756 -2.542815
vn -0.4423 0.3216 0.8373
vn -0.3417 0.7343 0.5866
vn -0.9442 -0.0452 0.3263
vn -0.9383 0.3092 -0.1547
vn -0.7041 -0.7062 -0.0739
vn -0.5406 -0.3749 -0.7531
vn 0.0420 -0.9983 0.0405
vn 0.3744 -0.6491 -0.6621
vn 0.5446 -0.6281 0.5558
vn 0.9597 -0.2811 0.0033
vn 0.2997 0.0326 0.9535
vn 0.6465 0.4083 0.6444
vn -0.6167 0.7040 -0.3522
vn -0.1766 0.9567 0.2316
vn -0.3026 0.2706 -0.9139
vn 0.4437 0.0924 -0.8914
vn 0.8840 0.3448 -0.3156
vn 0.5760 0.7785 0.2492
vt 0.784353 0.855197
vt 0.789699 0.744626
vt 0.804749 0.743804
vt 0.805567 0.856082
vt 0.812289 0.742950
vt 0.816215 0.858965
vt 0.664826 0.772816
vt 0.668670 0.658578
vt 0.676114 0.659917
vt 0.675301 0.776725
vt 0.691163 0.660744
vt 0.696514 0.775868
vt 0.695678 0.554973
vt 0.703443 0.556156
vt 0.698768 0.660232
vt 0.707251 0.771103
vt 0.773787 0.857196
vt 0.782190 0.744594
vt 0.830909 0.312864
vt 0.849297 0.323480
vt 0.849297 0.344713
vt 0.830909 0.355330
vt 0.812520 0.344713
vt 0.812520 0.323480
vt 0.730681 0.345127
vt 0.730681 0.337272
vt 0.737484 0.333344
vt 0.744287 0.337272
vt 0.744287 0.345127
vt 0.737484 0.349055
vt 0.785544 0.642965
vt 0.789319 0.641024
vt 0.707251 0.557395
vt 0.777778 0.644141
vt 0.691720 0.555027
vt 0.773787 0.643377
s 1
f 68/133/68 69/134/69 71/135/71 70/136/70
f 70/136/70 71/135/71 73/137/73 72/138/72
f 72/139/72 73/140/73 75/141/75 74/142/74
f 74/142/74 75/141/75 77/143/77 76/144/76
f 77/143/77 75/141/75 83/145/83 84/146/84
f 76/144/76 77/143/77 79/147/79 78/148/78
f 78/149/78 79/150/79 69/134/69 68/133/68
f 68/151/68 70/152/70 72/153/72 74/154/74 76/155/76 78/156/78
f 80/157/80 81/158/81 85/159/85 84/160/84 83/161/83 82/162/82
f 73/137/73 71/135/71 80/163/80 82/164/82
f 79/147/79 77/143/77 84/146/84 85/165/85
f 71/135/71 69/134/69 81/166/81 80/163/80
f 75/141/75 73/140/73 82/167/82 83/145/83
f 69/134/69 79/150/79 85/168/85 81/166/81
o Cylinder.003
v -1.017749 5.439904 -1.432975
v -1.418908 6.255035 -1.911058
v -1.239467 5.357197 -1.365776
v -1.628369 6.235968 -1.872617
v -1.356506 5.191783 -1.505258
v -1.763601 6.197832 -2.033779
v -1.251827 5.109077 -1.711939
v -1.689371 6.178763 -2.233383
v -1.030110 5.191783 -1.779138
v -1.479910 6.197832 -2.271824
v -0.913070 5.357197 -1.639656
v -1.344678 6.235968 -2.110662
v -1.810414 7.611156 -2.227002
v -1.700428 7.615731 -2.246561
v -1.882040 7.602007 -2.312363
v -1.843680 7.597432 -2.417281
v -1.733694 7.602007 -2.436840
v -1.662068 7.611156 -2.351479
v -0.058120 4.597545 -0.289333
v -0.327846 4.461057 -0.175658
v -0.438787 4.188082 -0.307871
v -0.280000 4.051595 -0.553760
v -0.010274 4.188082 -0.667436
v 0.100667 4.461057 -0.535223
vn 0.4205 0.7564 0.5011
vn 0.5655 0.4753 0.6740
vn -0.4984 0.3537 0.7915
vn -0.4224 0.2302 0.8767
vn -0.9006 -0.3693 0.2293
vn -0.9715 -0.1809 0.1532
vn -0.4646 -0.6910 -0.5537
vn -0.6023 -0.3494 -0.7178
vn 0.3822 -0.3693 -0.8471
vn 0.3195 -0.1809 -0.9301
vn 0.8660 0.3537 -0.3534
vn 0.9367 0.2302 -0.2638
vn -0.3270 0.6890 0.6468
vn 0.4239 0.7518 0.5051
vn -0.8208 0.5672 0.0667
vn -0.5532 0.5091 -0.6593
vn 0.2082 0.5672 -0.7968
vn 0.6938 0.6890 -0.2097
vn 0.5979 0.3672 0.7125
vn -0.0694 0.0276 0.9972
vn -0.3490 -0.6579 0.6674
vn 0.0447 -0.9976 0.0532
vn 0.7179 -0.6579 -0.2278
vn 0.9941 0.0276 0.1048
vt 0.767323 0.171696
vt 0.763752 0.100707
vt 0.777956 0.096622
vt 0.784355 0.171557
vt 0.784268 0.089366
vt 0.792998 0.172333
vt 0.822545 0.179913
vt 0.816055 0.097853
vt 0.830187 0.093440
vt 0.839566 0.179451
vt 0.618907 0.723625
vt 0.627064 0.637504
vt 0.641276 0.641523
vt 0.635940 0.723772
vt 0.654494 0.554973
vt 0.661817 0.557379
vt 0.647449 0.649673
vt 0.644405 0.724194
vt 0.758933 0.172611
vt 0.755860 0.097538
vt 0.813516 0.175558
vt 0.804526 0.288481
vt 0.792998 0.277313
vt 0.749621 0.006408
vt 0.742305 0.008863
vt 0.738067 0.006887
vt 0.741145 0.002455
vt 0.748461 -0.000000
vt 0.752699 0.001976
vt 0.664826 0.562248
vt 0.792998 0.002657
vt 0.800269 0.000000
vt 0.841456 0.560364
vt 0.829151 0.566532
vt 0.829151 0.500141
vt 0.835612 0.497204
vt 0.750048 0.288618
vt 0.769415 0.299800
vt 0.769415 0.322163
vt 0.750048 0.333344
vt 0.730681 0.322163
vt 0.730681 0.299800
vt 0.664826 0.840665
vt 0.654063 0.846084
vt 0.771443 0.285261
vt 0.749264 0.282489
vt 0.826708 0.290601
vt 0.738067 0.286645
vt 0.631876 0.848877
s 1
f 86/169/86 87/170/87 89/171/89 88/172/88
f 88/172/88 89/171/89 91/173/91 90/174/90
f 90/175/90 91/176/91 93/177/93 92/178/92
f 92/179/92 93/180/93 95/181/95 94/182/94
f 95/181/95 93/180/93 101/183/101 102/184/102
f 94/182/94 95/181/95 97/185/97 96/186/96
f 96/187/96 97/188/97 87/170/87 86/169/86
f 88/189/88 90/175/90 106/190/106 105/191/105
f 98/192/98 99/193/99 103/194/103 102/195/102 101/196/101 100/197/100
f 91/173/91 89/171/89 98/192/98 100/197/100
f 97/185/97 95/181/95 102/184/102 103/198/103
f 89/171/89 87/170/87 99/193/99 98/192/98
f 93/177/93 91/176/91 100/199/100 101/200/101
f 87/201/87 97/202/97 103/203/103 99/204/99
f 104/205/104 105/206/105 106/207/106 107/208/107 108/209/108 109/210/109
f 94/182/94 96/186/96 109/211/109 108/212/108
f 86/169/86 88/172/88 105/213/105 104/214/104
f 90/175/90 92/178/92 107/215/107 106/190/106
f 96/187/96 86/169/86 104/214/104 109/216/109
f 92/179/92 94/182/94 108/212/108 107/217/107
o Cylinder.004
v 0.007901 9.434241 -1.131363
v 1.178456 10.258294 -0.653784
v 0.204665 9.195706 -1.185954
v 1.314760 10.121867 -0.683543
v 0.269349 8.990130 -0.957590
v 1.383009 10.017731 -0.533294
v 0.137268 9.023091 -0.674634
v 1.314954 10.050022 -0.353287
v -0.059497 9.261626 -0.620043
v 1.178650 10.186450 -0.323528
v -0.124180 9.467201 -0.848408
v 1.110401 10.290586 -0.473777
v 2.170934 11.330723 -0.697790
v 2.089732 11.397556 -0.682328
v 2.222013 11.288967 -0.614442
v 2.191891 11.314045 -0.515633
v 2.110689 11.380877 -0.500172
v 2.059610 11.422633 -0.583520
vn -0.6248 0.1860 -0.7583
vn -0.3460 0.5372 -0.7692
vn -0.1105 -0.4247 -0.8986
vn 0.4178 -0.1801 -0.8905
vn 0.0724 -0.9503 -0.3027
vn 0.7661 -0.6370 -0.0855
vn -0.2634 -0.8607 0.4357
vn 0.4330 -0.4481 0.7822
vn -0.7815 -0.2454 0.5737
vn -0.2428 0.1959 0.9501
vn -0.9605 0.2771 -0.0261
vn -0.6648 0.7137 0.2207
vn 0.6025 0.3023 -0.7387
vn -0.0027 0.7779 -0.6284
vn 0.9923 0.0201 -0.1219
vn 0.7796 0.2114 0.5895
vn 0.1874 0.6847 0.7043
vn -0.2099 0.9731 0.0953
vt 0.848839 0.844047
vt 0.841127 0.741725
vt 0.847819 0.741942
vt 0.859627 0.846485
vt 0.718856 0.848888
vt 0.735102 0.747116
vt 0.741885 0.748435
vt 0.729556 0.855115
vt 0.755397 0.748472
vt 0.751191 0.857228
vt 0.762125 0.747191
vt 0.762125 0.853114
vt 0.738573 0.644234
vt 0.742271 0.644245
vt 0.816215 0.848930
vt 0.820818 0.740866
vt 0.827626 0.741187
vt 0.827133 0.845270
vt 0.702485 0.809338
vt 0.683655 0.820209
vt 0.664826 0.809338
vt 0.664826 0.787596
vt 0.683655 0.776725
vt 0.702485 0.787596
vt 0.757593 0.344385
vt 0.757593 0.337024
vt 0.763967 0.333344
vt 0.770342 0.337024
vt 0.770342 0.344385
vt 0.763967 0.348065
vt 0.727614 0.645620
vt 0.731245 0.644922
vt 0.845043 0.641024
vt 0.848627 0.642607
vt 0.855919 0.643603
vt 0.859627 0.643018
s 1
f 110/218/110 111/219/111 113/220/113 112/221/112
f 112/222/112 113/223/113 115/224/115 114/225/114
f 114/225/114 115/224/115 117/226/117 116/227/116
f 116/227/116 117/226/117 119/228/119 118/229/118
f 119/228/119 117/226/117 125/230/125 126/231/126
f 118/232/118 119/233/119 121/234/121 120/235/120
f 120/235/120 121/234/121 111/219/111 110/218/110
f 110/236/110 112/237/112 114/238/114 116/239/116 118/240/118 120/241/120
f 122/242/122 123/243/123 127/244/127 126/245/126 125/246/125 124/247/124
f 115/224/115 113/223/113 122/248/122 124/249/124
f 121/234/121 119/233/119 126/250/126 127/251/127
f 113/220/113 111/219/111 123/252/123 122/253/122
f 117/226/117 115/224/115 124/249/124 125/230/125
f 111/219/111 121/234/121 127/251/127 123/252/123
o Cylinder.005
v 1.417272 4.439904 0.579127
v 1.957751 5.255035 0.891173
v 1.602635 4.357197 0.440149
v 2.141433 5.235968 0.783410
v 1.760321 4.191783 0.531189
v 2.323630 5.197832 0.888602
v 1.732645 4.109077 0.761208
v 2.322145 5.178763 1.101556
v 1.547281 4.191783 0.900186
v 2.138464 5.197832 1.209319
v 1.389595 4.357197 0.809146
v 1.956267 5.235968 1.104128
v 2.433706 6.611156 1.054161
v 2.337043 6.615731 1.110157
v 2.530208 6.602007 1.109876
v 2.530045 6.597432 1.221587
v 2.433382 6.602007 1.277584
v 2.336880 6.611156 1.221869
v 0.124366 3.597545 -0.167332
v 0.338947 3.461057 -0.366404
v 0.488416 3.188082 -0.280108
v 0.423305 3.051595 0.005261
v 0.208724 3.188082 0.204333
v 0.059255 3.461057 0.118037
vn -0.5665 0.7564 -0.3271
vn -0.7619 0.4753 -0.4399
vn 0.1977 0.3537 -0.9142
vn 0.0971 0.2302 -0.9683
vn 0.7678 -0.3693 -0.5235
vn 0.8605 -0.1809 -0.4762
vn 0.6260 -0.6910 0.3614
vn 0.8115 -0.3494 0.4685
vn -0.0695 -0.3693 0.9267
vn 0.0179 -0.1809 0.9833
vn -0.6929 0.3537 0.6283
vn -0.7900 0.2302 0.5682
vn 0.0861 0.6890 -0.7197
vn -0.5711 0.7518 -0.3297
vn 0.7485 0.5672 -0.3434
vn 0.7454 0.5091 0.4303
vn 0.0768 0.5672 0.8200
vn -0.5802 0.6890 0.4344
vn -0.8055 0.3672 -0.4651
vn -0.2758 0.0276 -0.9608
vn 0.0997 -0.6579 -0.7465
vn -0.0602 -0.9976 -0.0348
vn -0.5967 -0.6579 0.4596
vn -0.9700 0.0276 0.2415
vt 0.748112 0.529285
vt 0.744541 0.458297
vt 0.758745 0.454211
vt 0.765144 0.529146
vt 0.765057 0.446956
vt 0.773787 0.529923
vt 0.555968 0.734885
vt 0.549479 0.652826
vt 0.563610 0.648412
vt 0.572989 0.734424
vt 0.572989 0.723625
vt 0.581145 0.637504
vt 0.595358 0.641523
vt 0.590022 0.723772
vt 0.608576 0.554973
vt 0.615898 0.557379
vt 0.601531 0.649673
vt 0.598486 0.724194
vt 0.739722 0.530200
vt 0.736649 0.455127
vt 0.546939 0.730531
vt 0.537949 0.843454
vt 0.526421 0.832286
vt 0.730410 0.363997
vt 0.723094 0.366453
vt 0.718856 0.364476
vt 0.721933 0.360045
vt 0.729249 0.357589
vt 0.733488 0.359566
vt 0.618907 0.562248
vt 0.526421 0.557629
vt 0.533692 0.554973
vt 0.841456 0.629692
vt 0.829151 0.635861
vt 0.829151 0.569469
vt 0.835612 0.566532
vt 0.793154 0.312864
vt 0.812520 0.324045
vt 0.812520 0.346408
vt 0.793154 0.357589
vt 0.773787 0.346408
vt 0.773787 0.324045
vt 0.618907 0.840665
vt 0.608145 0.846084
vt 0.752232 0.642851
vt 0.730052 0.640079
vt 0.560131 0.845573
vt 0.718856 0.644234
vt 0.585958 0.848877
s 1
f 128/254/128 129/255/129 131/256/131 130/257/130
f 130/257/130 131/256/131 133/258/133 132/259/132
f 132/260/132 133/261/133 135/262/135 134/263/134
f 134/264/134 135/265/135 137/266/137 136/267/136
f 137/266/137 135/265/135 143/268/143 144/269/144
f 136/267/136 137/266/137 139/270/139 138/271/138
f 138/272/138 139/273/139 129/255/129 128/254/128
f 130/274/130 132/260/132 148/275/148 147/276/147
f 140/277/140 141/278/141 145/279/145 144/280/144 143/281/143 142/282/142
f 133/258/133 131/256/131 140/277/140 142/282/142
f 139/270/139 137/266/137 144/269/144 145/283/145
f 131/256/131 129/255/129 141/278/141 140/277/140
f 135/262/135 133/261/133 142/284/142 143/285/143
f 129/286/129 139/287/139 145/288/145 141/289/141
f 146/290/146 147/291/147 148/292/148 149/293/149 150/294/150 151/295/151
f 136/267/136 138/271/138 151/296/151 150/297/150
f 128/254/128 130/257/130 147/298/147 146/299/146
f 132/260/132 134/263/134 149/300/149 148/275/148
f 138/272/138 128/254/128 146/299/146 151/301/151
f 134/264/134 136/267/136 150/297/150 149/302/149
