# Blender 4.5.2 LTS
# www.blender.org
o Cube
v 1.000000 3.569283 -1.000000
v 1.000000 -3.569283 -1.000000
v 1.000000 3.569283 1.000000
v 1.000000 -3.569283 1.000000
v -1.000000 3.569283 -1.000000
v -1.000000 -3.569283 -1.000000
v -1.000000 3.569283 1.000000
v -1.000000 -3.569283 1.000000
v -1.280598 -3.569283 -1.280598
v -1.280598 -3.569283 1.280598
v 1.280598 -3.569283 -1.280598
v 1.280598 3.569283 -1.280598
v -1.280598 3.569283 1.280598
v 1.280598 3.569283 1.280598
v 1.280598 -3.569283 1.280598
v -1.280598 3.569283 -1.280598
vn -0.0000 -0.0000 -1.0000
vn 1.0000 -0.0000 -0.0000
vn -1.0000 -0.0000 -0.0000
vn -0.0000 -0.0000 1.0000
vn -0.0000 1.0000 -0.0000
vn -0.0000 -1.0000 -0.0000
vt 0.319476 1.000000
vt 0.179391 1.000000
vt 0.179391 0.500000
vt 0.319476 0.500000
vt 0.459560 1.000000
vt 0.459560 0.500000
vt 0.678259 0.500000
vt 0.538174 0.500000
vt 0.538174 0.000000
vt 0.678259 0.000000
vt 0.678259 1.000000
vt 0.538174 1.000000
vt 0.538174 0.500000
vt 0.678259 0.500000
vt 0.000000 0.500000
vt 0.000000 0.000000
vt 0.179391 0.000000
vt 0.179391 0.500000
vt 0.358783 0.000000
vt 0.358783 0.500000
vt 0.000000 1.000000
vt 0.000000 0.500000
vt 0.697912 0.159738
vt 0.837996 0.159738
vt 0.857650 0.179391
vt 0.678259 0.179391
vt 0.837996 0.019654
vt 0.697912 0.019654
vt 0.678259 0.000000
vt 0.857650 0.000000
vt 0.837996 0.339129
vt 0.837996 0.199045
vt 0.857650 0.179392
vt 0.857650 0.358783
vt 0.697912 0.199045
vt 0.697912 0.339129
vt 0.678258 0.358783
vt 0.678259 0.179391
s 0
f 4/1/1 8/2/1 7/3/1 3/4/1
f 8/5/2 6/1/2 5/4/2 7/6/2
f 2/7/3 4/8/3 3/9/3 1/10/3
f 6/11/4 2/12/4 1/13/4 5/14/4
f 15/15/4 14/16/4 13/17/4 10/18/4
f 10/18/3 13/17/3 16/19/3 9/20/3
f 11/20/2 12/19/2 14/9/2 15/8/2
f 9/21/1 16/22/1 12/3/1 11/2/1
f 7/23/5 5/24/5 16/25/5 13/26/5
f 1/27/5 3/28/5 14/29/5 12/30/5
f 2/31/6 6/32/6 9/33/6 11/34/6
f 5/24/5 1/27/5 12/30/5 16/25/5
f 8/35/6 4/36/6 15/37/6 10/38/6
f 3/28/5 7/23/5 13/26/5 14/29/5
f 4/36/6 2/31/6 11/34/6 15/37/6
f 6/32/6 8/35/6 10/38/6 9/33/6
